<?xml version="1.0" encoding="UTF-8" standalone="no"?>
<!-- Created with Inkscape (http://www.inkscape.org/) -->

<svg
   xmlns:dc="http://purl.org/dc/elements/1.1/"
   xmlns:cc="http://creativecommons.org/ns#"
   xmlns:rdf="http://www.w3.org/1999/02/22-rdf-syntax-ns#"
   xmlns:svg="http://www.w3.org/2000/svg"
   xmlns="http://www.w3.org/2000/svg"
   xmlns:sodipodi="http://sodipodi.sourceforge.net/DTD/sodipodi-0.dtd"
   xmlns:inkscape="http://www.inkscape.org/namespaces/inkscape"
   width="128"
   height="128"
   viewBox="0 0 55.2 55.2"
   id="svg2"
   version="1.1"
   inkscape:version="0.92.4 (5da689c313, 2019-01-14)"
   sodipodi:docname="Setting.svg"
   inkscape:export-filename="Setting.png"
   inkscape:export-xdpi="96"
   inkscape:export-ydpi="96">
  <defs
     id="defs4" />
  <sodipodi:namedview
     id="base"
     pagecolor="#ffffff"
     bordercolor="#666666"
     borderopacity="1.0"
     inkscape:pageopacity="0.0"
     inkscape:pageshadow="2"
     inkscape:zoom="3.0815218"
     inkscape:cx="14.702728"
     inkscape:cy="43.571832"
     inkscape:document-units="px"
     inkscape:current-layer="layer1"
     showgrid="false"
     units="px">
    <inkscape:grid
       type="xygrid"
       id="grid5844" />
  </sodipodi:namedview>
  <metadata
     id="metadata7">
    <rdf:RDF>
      <cc:Work
         rdf:about="">
        <dc:format>image/svg+xml</dc:format>
        <dc:type
           rdf:resource="http://purl.org/dc/dcmitype/StillImage" />
        <dc:title />
      </cc:Work>
    </rdf:RDF>
  </metadata>
  <g
     inkscape:groupmode="layer"
     id="layer2"
     inkscape:label="Layer 1"
     style="display:inline"
     transform="translate(0,7.2)" />
  <g
     inkscape:groupmode="layer"
     id="layer1"
     inkscape:label="Layer 2"
     style="display:inline"
     transform="translate(0,7.2)">
    <rect
       style="opacity:1;fill:#968996;fill-opacity:1;fill-rule:evenodd;stroke:none;stroke-width:4.7177248;stroke-linecap:round;stroke-miterlimit:4;stroke-dasharray:none;stroke-dashoffset:0;stroke-opacity:1;paint-order:normal"
       id="rect877"
       width="55.200001"
       height="55.200001"
       x="0"
       y="-7.2000008" />
    <rect
       style="display:inline;opacity:1;fill:none;fill-opacity:1;fill-rule:evenodd;stroke:#e1e1e1;stroke-width:1.72500002;stroke-linecap:round;stroke-miterlimit:4;stroke-dasharray:none;stroke-dashoffset:0;stroke-opacity:1;paint-order:normal"
       id="rect877-0"
       width="53.474998"
       height="53.474998"
       x="0.86250001"
       y="-6.3374987" />
    <g
       id="g4167"
       style="display:inline;fill:#ffffff;fill-opacity:1;stroke:#e1e1e1;stroke-opacity:1;stroke-width:1.11999999;stroke-miterlimit:4;stroke-dasharray:none"
       transform="matrix(0.77008929,0,0,0.77008929,9.1178521,1.9178535)">
      <path
         style="display:inline;fill:#ffffff;fill-opacity:1;fill-rule:evenodd;stroke:#e1e1e1;stroke-width:1.11999999;stroke-linecap:butt;stroke-linejoin:miter;stroke-opacity:1;stroke-miterlimit:4;stroke-dasharray:none"
         d="M 24.074585,3.000005 C 22.414666,3.003335 20.73077,3.1679759 20.216892,3.4834424 19.491435,3.9287975 18.988405,6.0567448 18.682346,7.8365676 A 17.027192,17.027027 0 0 0 16.357011,8.8056303 C 14.945586,7.802108 13.155003,6.7038971 12.167908,6.8171924 11.117394,6.9378925 7.0978269,10.994917 6.8172312,12.167818 6.6195761,12.994014 7.7641617,14.848327 8.804594,16.32188 a 17.027192,17.027027 0 0 0 -0.9504776,2.337344 c -1.7081799,0.288329 -3.7525054,0.778961 -4.3706674,1.5575 -0.6575617,0.828161 -0.630939,6.538816 0,7.566562 0.4453594,0.72545 2.5733273,1.228475 4.3531673,1.534532 a 17.027192,17.027027 0 0 0 0.969072,2.325312 c -1.0035588,1.411404 -2.1018084,3.202045 -1.9884571,4.189062 0.1206178,1.0507 4.1778188,5.070025 5.3506768,5.350626 0.826203,0.197601 2.680541,-0.946939 4.154102,-1.987344 a 17.027192,17.027027 0 0 0 2.337367,0.950468 c 0.288332,1.708164 0.778969,3.75247 1.557515,4.370626 0.828169,0.657552 6.538879,0.63093 7.566635,0 0.725458,-0.445355 1.228487,-2.573303 1.534546,-4.353126 a 17.027192,17.027027 0 0 0 2.325335,-0.969062 c 1.411425,1.003522 3.202008,2.101733 4.189103,1.988438 1.050514,-0.120701 5.070081,-4.177725 5.350677,-5.350626 0.197656,-0.826196 -0.946931,-2.680509 -1.987363,-4.154062 a 17.027192,17.027027 0 0 0 0.950478,-2.337344 c 1.70818,-0.288329 3.752506,-0.778961 4.370668,-1.5575 0.657563,-0.828161 0.630935,-6.538816 0,-7.566562 -0.44536,-0.72545 -2.573328,-1.228475 -4.353168,-1.534532 A 17.027192,17.027027 0 0 0 39.194731,16.35688 c 1.003559,-1.411404 2.101807,-3.202045 1.988457,-4.189062 -0.12062,-1.0507 -4.177819,-5.0700253 -5.350677,-5.3506256 -0.826203,-0.1976016 -2.68054,0.9469387 -4.154102,1.9873436 A 17.027192,17.027027 0 0 0 29.341042,7.8540676 C 29.05271,6.1459041 28.562073,4.1015984 27.783527,3.4834424 27.369443,3.1546647 25.734505,2.9966775 24.074585,3.000005 Z m -0.07438,12.519063 a 8.4813669,8.4812851 0 0 1 8.48102,8.480937 8.4813669,8.4812851 0 0 1 -8.48102,8.480937 8.4813669,8.4812851 0 0 1 -8.481019,-8.480937 8.4813669,8.4812851 0 0 1 8.481019,-8.480937 z"
         id="path5782-7"
         inkscape:connector-curvature="0" />
    </g>
  </g>
</svg>
